HIERARCHY
ROOT Hips
{
	OFFSET 0.00000 0.00000 0.00000
	CHANNELS 6 Xposition Yposition Zposition Zrotation Yrotation Xrotation 
	JOINT LHipJoint
	{
		OFFSET 0 0 0
		CHANNELS 3 Zrotation Yrotation Xrotation
		JOINT LeftHip
		{
			OFFSET 1.64577 -1.42384 0.94276
			CHANNELS 3 Zrotation Yrotation Xrotation
			JOINT LeftKnee
			{
				OFFSET 2.11538 -5.81197 0.00000
				CHANNELS 3 Zrotation Yrotation Xrotation
				JOINT LeftAnkle
				{
					OFFSET 2.36541 -6.49893 0.00000
					CHANNELS 3 Zrotation Yrotation Xrotation
					JOINT LeftToe
					{
						OFFSET 0.17759 -0.48793 1.73865
						CHANNELS 3 Zrotation Yrotation Xrotation
						End Site
						{
							OFFSET 0.00000 -0.00000 0.91205
						}
					}
				}
			}
		}
	}
	JOINT RHipJoint
	{
		OFFSET 0 0 0
		CHANNELS 3 Zrotation Yrotation Xrotation
		JOINT RightHip
		{
			OFFSET -1.43750 -1.42384 0.94276
			CHANNELS 3 Zrotation Yrotation Xrotation
			JOINT RightKnee
			{
				OFFSET -2.10480 -5.78291 0.00000
				CHANNELS 3 Zrotation Yrotation Xrotation
				JOINT RightAnkle
				{
					OFFSET -2.34880 -6.45329 0.00000
					CHANNELS 3 Zrotation Yrotation Xrotation
					JOINT RightToe
					{
						OFFSET -0.22842 -0.62757 1.80469
						CHANNELS 3 Zrotation Yrotation Xrotation
						End Site
						{
							OFFSET -0.00000 -0.00000 0.95886
						}
					}
				}
			}
		}
	}
	JOINT lowerback
	{
		OFFSET 0 0 0
		CHANNELS 3 Zrotation Yrotation Xrotation
		JOINT Chest
		{
			OFFSET 0.06217 1.93758 -0.49272
			CHANNELS 3 Zrotation Yrotation Xrotation
			JOINT Chest2
			{
				OFFSET -0.03114 2.03621 -0.05830
				CHANNELS 3 Zrotation Yrotation Xrotation
				JOINT lowerneck
				{
					OFFSET 0 0 0
					CHANNELS 3 Zrotation Yrotation Xrotation
					JOINT Neck
					{
						OFFSET 0.04421 1.41010 0.26562
						CHANNELS 3 Zrotation Yrotation Xrotation
						JOINT Head
						{
							OFFSET -0.13407 1.43847 0.06181
							CHANNELS 3 Zrotation Yrotation Xrotation
							End Site
							{
								OFFSET -0.04980 1.45844 -0.00689
							}
						}
					}
				}
				JOINT LeftCollar
				{
					OFFSET 0 0 0
					CHANNELS 3 Zrotation Yrotation Xrotation
					JOINT LeftShoulder
					{
						OFFSET 2.18382 1.47753 -0.35694
CHANNELS 3 Zrotation Xrotation Yrotation
						JOINT LeftElbow
						{
OFFSET 0 -5.054600 0.000000
CHANNELS 3 Zrotation Xrotation Yrotation
							JOINT LeftWrist
							{
OFFSET 0 -3.390130 0.000000
CHANNELS 3 Zrotation Xrotation Yrotation
								JOINT lhand
								{
									OFFSET 0 0 0
CHANNELS 3 Zrotation Xrotation Yrotation
									JOINT LFingers
									{
OFFSET 0 -0.572420 -0.000000
CHANNELS 3 Zrotation Xrotation Yrotation
										End Site
										{
OFFSET 0 -0.461500 -0.000000
										}
									}
								}
								JOINT LThumb
								{
OFFSET 0 0.000000 0.000000
CHANNELS 3 Zrotation Xrotation Yrotation
									End Site
									{
OFFSET 0 -0.468550 0.468550
									}
								}
							}
						}
					}
				}
				JOINT RightCollar
				{
					OFFSET 0 0 0
					CHANNELS 3 Zrotation Yrotation Xrotation
					JOINT RightShoulder
					{
						OFFSET -2.06033 1.72839 -0.47437
CHANNELS 3 Zrotation Xrotation Yrotation
						JOINT RightElbow
						{
OFFSET 0 -5.070100 0.000000
CHANNELS 3 Zrotation Xrotation Yrotation
							JOINT RightWrist
							{
OFFSET 0 -3.149570 -0.000000
CHANNELS 3 Zrotation Xrotation Yrotation
								JOINT rhand
								{
									OFFSET 0 0 0
CHANNELS 3 Zrotation Xrotation Yrotation
									JOINT RFingers
									{
OFFSET 0 -0.718190 -0.000000
CHANNELS 3 Zrotation Xrotation Yrotation
										End Site
										{
OFFSET 0 -0.579020 -0.000000
										}
									}
								}
								JOINT RThumb
								{
OFFSET 0 0.000000 0.000000
CHANNELS 3 Zrotation Xrotation Yrotation
									End Site
									{
OFFSET 0 -0.587860 0.587860
									}
								}
							}
						}
					}
				}
			}
		}
	}
}
MOTION
Frames: 6
Frame Time: 0.008333333333333333
-27.703500 15.123200 -17.082100 0.383600 2.107500 -0.601000 0.000000 0.000000 0.000000 -27.196200 -18.137700 0.510200 2.279500 9.425500 27.135800 1.867600 16.897000 -36.453600 0.102400 2.063400 5.680900 0.000000 0.000000 0.000000 24.033700 20.864700 -0.643000 -2.548600 -9.925800 28.736700 -3.321300 -14.170800 -41.446700 -0.020700 0.929700 -2.555300 -3.655000 1.559900 3.644000 -1.375500 1.994300 3.018600 0.579400 0.952300 0.985400 6.531500 4.320100 -12.533700 -0.864200 4.768900 18.911500 -0.851300 2.647200 8.117000 -0.000000 0.000000 0.000000 3.965100 -0.350200 -24.942100 13.326000 -21.763000 2.572900 25.424900 12.506800 -13.847400 0.000000 0.000000 0.000000 -7.125000 0.000000 0.000000 -1.871000 45.237800 0.011000 -0.000000 0.000000 0.000000 -0.856600 4.060300 31.726500 -17.687000 -27.754500 -4.402500 -16.267600 -17.966300 -0.349500 0.000000 0.000000 0.000000 7.125000 0.000000 -0.000000 8.069100 29.569300 3.063700
-27.678310 15.134212 -17.057542 0.354589 1.912968 -0.352731 0.000000 0.000000 0.000000 -27.406448 -18.640404 0.767801 2.238341 9.345739 26.882989 1.630311 18.153168 -36.326942 0.033181 1.173042 3.225149 0.000000 0.000000 0.000000 23.967541 21.129981 -0.774323 -2.573444 -9.970257 28.880535 -3.339844 -14.239298 -41.574390 -0.030824 1.132084 -3.112377 -3.472375 1.602147 3.388331 -1.489897 2.065697 2.933681 0.364476 0.991874 1.048136 6.646836 4.324347 -12.475031 -0.869423 4.756428 18.973118 -0.873834 2.650062 8.130371 0.000000 0.000000 0.000000 4.977058 0.591213 -25.154629 13.174169 -21.541807 2.516897 27.953311 14.571479 -14.897260 0.000000 0.000000 0.000000 -7.125000 0.000000 0.000000 0.369117 46.739523 -0.014707 0.000000 0.000000 0.000000 -0.558526 4.129237 31.165694 -17.585992 -27.623824 -4.355560 -16.122682 -17.689291 -0.625020 0.000000 0.000000 0.000000 7.125000 0.000000 0.000000 8.159670 29.284336 3.154664
-27.658830 15.135067 -17.043269 0.533645 1.794926 -0.282530 0.000000 0.000000 0.000000 -27.497110 -18.102852 0.505449 2.221109 9.312179 26.776834 1.417395 18.471146 -35.483086 0.005757 0.374119 1.027988 0.000000 0.000000 0.000000 23.650713 21.072973 -0.889150 -2.593388 -10.005718 28.995231 -3.446591 -13.709285 -41.712556 -0.019238 0.819347 -2.252370 -3.694423 1.648140 3.420023 -1.551186 2.119426 2.907591 0.422395 1.016619 0.997015 6.737460 4.323054 -12.609951 -0.974028 4.748317 19.249205 -0.919451 2.645239 8.252146 0.000000 0.000000 0.000000 5.732145 1.465897 -25.576533 13.077830 -21.401068 2.481592 28.146596 15.413864 -14.350613 0.000000 0.000000 0.000000 -7.125000 0.000000 0.000000 0.621021 46.159385 -0.019044 0.000000 0.000000 0.000000 -0.339384 4.071975 30.618550 -17.530606 -27.551958 -4.329944 -15.988410 -17.459746 -0.617640 0.000000 0.000000 0.000000 7.125000 0.000000 0.000000 8.264645 29.291190 3.194599
-27.641067 15.135168 -17.038259 0.408857 1.776718 -0.250691 0.000000 0.000000 0.000000 -27.325815 -17.786697 0.265788 2.235478 9.340202 26.865451 1.293274 18.675961 -34.999808 0.001182 -0.187046 -0.513888 0.000000 0.000000 0.000000 23.821124 21.312546 -0.748078 -2.585390 -9.991485 28.949106 -3.522279 -13.728399 -42.060661 -0.003232 0.354138 -0.973082 -3.698038 1.598299 3.463172 -1.475793 2.051007 2.929903 0.502790 0.981374 0.995282 6.847325 4.393448 -12.676159 -1.165012 4.857500 19.349682 -0.986468 2.686600 8.310058 0.000000 0.000000 0.000000 6.258712 1.982308 -26.109829 13.073979 -21.395564 2.480231 26.866459 15.877137 -15.129376 0.000000 0.000000 0.000000 -7.125000 0.000000 0.000000 -0.698559 46.840248 0.030579 0.000000 0.000000 0.000000 -0.443158 4.156468 31.087566 -17.716345 -27.792343 -4.416218 -16.029395 -17.815925 -0.603870 0.000000 0.000000 0.000000 7.125000 0.000000 0.000000 8.233882 29.305617 3.179646
-27.614596 15.134284 -17.037094 0.368383 1.840705 -0.144498 0.000000 0.000000 0.000000 -27.323283 -17.707105 -0.012131 2.260901 9.389593 27.021769 1.264433 18.687947 -34.851607 0.005649 -0.481585 -1.323286 0.000000 0.000000 0.000000 23.710369 21.204767 -0.894260 -2.562402 -9.950495 28.816602 -3.501955 -13.949990 -42.107881 -0.003168 0.240905 -0.662068 -3.685796 1.400387 3.386028 -1.465928 1.794413 3.005685 0.516424 0.850665 1.125511 6.969959 4.620191 -12.760801 -1.212974 5.146150 19.288951 -0.987700 2.825043 8.322606 0.000000 0.000000 0.000000 6.621282 2.252719 -25.006436 13.424007 -21.904784 2.609752 25.283833 13.665978 -13.907247 0.000000 0.000000 0.000000 -7.125000 0.000000 0.000000 -2.011149 45.284874 0.014024 0.000000 0.000000 0.000000 -0.609022 4.055535 32.001856 -17.913194 -28.045838 -4.508318 -16.246513 -18.046141 -0.494752 0.000000 0.000000 0.000000 7.125000 0.000000 0.000000 8.073694 29.419397 3.094696
-27.598244 15.132515 -17.033326 0.068597 1.866304 -0.275426 0.000000 0.000000 0.000000 -27.073773 -17.539404 0.000514 2.284644 9.435398 27.167044 1.340890 18.469496 -35.060643 0.009198 -0.618543 -1.699642 0.000000 0.000000 0.000000 23.854312 20.575047 -0.980634 -2.542898 -9.915379 28.703274 -3.414253 -13.628280 -41.517255 -0.001588 0.256249 -0.704037 -3.490137 1.401830 3.373682 -1.305442 1.804543 3.134883 0.573792 0.854219 1.265344 6.678521 4.634823 -12.623554 -0.929892 5.178984 19.181956 -0.846324 2.847165 8.246705 0.000000 0.000000 0.000000 6.516135 2.065802 -23.804732 13.499418 -22.014592 2.637569 23.936769 13.339124 -13.839517 0.000000 0.000000 0.000000 -7.125000 0.000000 0.000000 -3.251717 45.039782 0.003208 0.000000 0.000000 0.000000 -0.721225 3.837766 32.100632 -17.904619 -28.034895 -4.504291 -16.724872 -17.886704 -0.306519 0.000000 0.000000 0.000000 7.125000 0.000000 0.000000 7.715785 29.616991 2.918471
